<?xml version="1.0" standalone="no"?>
<!DOCTYPE svg PUBLIC "-//W3C//DTD SVG 20010904//EN"
 "http://www.w3.org/TR/2001/REC-SVG-20010904/DTD/svg10.dtd">
<svg version="1.0" xmlns="http://www.w3.org/2000/svg"
 width="7680.000000pt" height="4320.000000pt" viewBox="0 0 7680.000000 4320.000000"
 preserveAspectRatio="xMidYMid meet">

<g transform="translate(0.000000,4320.000000) scale(0.100000,-0.100000)"
fill="#000000" stroke="none">
<path d="M43375 31455 c-55 -8 -136 -18 -180 -24 -134 -16 -270 -40 -331 -57
-33 -9 -88 -24 -124 -33 -71 -19 -110 -37 -110 -50 0 -9 -41 -27 -145 -66 -38
-14 -86 -33 -105 -43 -35 -17 -35 -18 -33 -77 3 -70 30 -202 43 -210 17 -10
31 -82 21 -107 -9 -23 -142 -141 -188 -166 -17 -10 -28 -11 -37 -3 -9 8 -28
-7 -75 -59 -34 -39 -68 -70 -75 -70 -6 0 -30 -13 -52 -29 -21 -15 -60 -36 -85
-45 -25 -10 -70 -37 -100 -62 -50 -40 -68 -49 -93 -45 -33 7 -54 -11 -65 -54
-10 -38 -29 -63 -134 -166 -67 -66 -126 -123 -132 -127 -32 -22 -66 -124 -105
-314 -17 -83 -46 -199 -65 -257 -19 -58 -47 -151 -64 -206 -117 -394 -168
-551 -210 -653 -58 -141 -104 -287 -166 -527 -95 -366 -185 -659 -225 -736
-21 -39 -41 -44 -474 -114 -98 -16 -251 -57 -287 -76 -37 -19 -59 -82 -59
-167 0 -75 3 -85 48 -173 32 -65 52 -93 63 -91 16 2 32 -23 45 -68 15 -57 182
-361 206 -376 5 -3 13 8 19 25 14 40 26 39 34 -1 10 -51 45 -148 73 -203 31
-62 60 -146 72 -205 14 -74 -33 -512 -66 -610 -8 -25 -24 -91 -34 -148 -23
-124 -105 -412 -131 -465 -23 -43 -64 -198 -74 -273 -4 -28 -11 -57 -15 -64
-19 -31 -115 77 -190 215 -18 33 -43 76 -56 95 -13 20 -28 65 -34 105 -14 85
-25 103 -52 78 -18 -16 -20 -16 -44 12 -13 17 -38 55 -55 85 -45 83 -72 124
-96 150 -19 20 -40 65 -60 130 -4 13 -6 12 -14 -2 -19 -34 -39 -18 -83 70 -25
48 -56 100 -70 116 -14 16 -26 32 -26 36 0 4 -14 22 -31 39 -17 18 -40 53 -50
77 -22 49 -49 59 -49 18 0 -22 -2 -25 -15 -14 -9 8 -15 29 -15 56 0 28 -6 49
-18 61 -10 10 -30 38 -46 63 -40 64 -151 180 -173 180 -22 0 -74 53 -97 99
-13 25 -34 55 -46 66 -12 11 -37 43 -56 70 -37 56 -198 219 -314 316 -41 35
-113 100 -160 145 -47 44 -105 95 -130 113 -25 17 -65 47 -90 67 -25 19 -72
53 -105 76 -33 23 -90 69 -126 103 -70 64 -111 94 -224 164 -38 24 -107 68
-153 97 -45 30 -111 70 -147 89 -98 51 -207 116 -230 136 -41 35 -236 138
-250 133 -8 -4 -27 2 -43 12 -44 29 -112 64 -125 64 -7 0 -39 17 -72 37 -85
52 -205 113 -222 113 -17 0 -245 73 -345 111 -228 87 -447 144 -673 175 -66 8
-194 29 -285 46 -91 16 -205 36 -255 44 -102 16 -234 45 -345 76 -166 47 -190
49 -619 55 -367 5 -758 -6 -844 -23 -12 -2 -62 -9 -112 -14 -49 -6 -164 -24
-255 -41 -91 -17 -203 -36 -250 -44 -47 -7 -107 -18 -133 -24 -27 -6 -85 -15
-130 -20 -45 -5 -129 -14 -187 -21 -94 -10 -259 -30 -510 -61 -105 -13 -214
-36 -260 -54 -19 -7 -73 -21 -120 -30 -47 -10 -107 -27 -135 -37 -55 -22 -210
-68 -435 -128 -80 -22 -168 -45 -196 -53 -60 -17 -158 -53 -193 -72 -86 -44
-253 -110 -414 -161 -98 -32 -128 -47 -184 -92 -107 -85 -288 -163 -373 -161
-72 1 -144 66 -195 175 -24 52 -72 102 -128 130 -49 26 -97 67 -97 84 0 19
117 139 189 194 115 87 172 125 336 225 94 57 179 111 190 121 56 49 244 150
385 205 279 110 499 168 925 245 93 17 226 44 295 60 132 30 492 91 645 109
241 28 535 44 947 50 245 3 449 9 453 13 6 6 -35 118 -177 483 -17 44 -44 109
-60 144 -40 88 -46 121 -22 121 11 1 37 8 59 16 38 14 108 26 345 60 58 8 137
21 175 28 39 8 95 17 125 21 30 4 105 15 165 26 61 11 211 35 335 54 124 20
266 42 315 50 50 8 144 21 210 29 119 15 649 87 776 106 114 17 139 34 159
110 21 77 -6 191 -47 204 -33 10 -117 9 -263 -2 -179 -14 -256 -19 -640 -37
-168 -9 -330 -17 -360 -20 -30 -2 -138 -9 -240 -15 -102 -6 -232 -15 -290 -20
-58 -5 -141 -12 -185 -15 -44 -3 -100 -8 -125 -10 -102 -10 -441 -31 -635 -40
-66 -3 -160 -7 -210 -10 -98 -5 -282 -12 -640 -24 -211 -8 -236 -11 -309 -35
-99 -34 -165 -81 -222 -160 -63 -87 -67 -109 -61 -343 4 -154 3 -204 -7 -212
-14 -12 -157 -34 -312 -50 -350 -36 -1211 -261 -1505 -394 -87 -39 -244 -137
-354 -218 -99 -75 -240 -169 -252 -169 -3 0 -36 -23 -73 -50 -98 -72 -187
-171 -252 -280 -31 -52 -68 -108 -83 -125 l-25 -30 -31 35 c-16 19 -44 60 -61
90 -17 30 -63 93 -103 140 -39 47 -90 110 -112 141 -44 60 -115 126 -148 139
-12 4 -28 2 -42 -7 -34 -22 -111 -150 -207 -341 -47 -95 -118 -223 -157 -285
-39 -61 -123 -218 -187 -347 -122 -246 -186 -365 -291 -540 -80 -132 -115
-193 -176 -300 -83 -147 -127 -224 -150 -260 -102 -160 -177 -287 -250 -425
-27 -49 -76 -142 -110 -205 -34 -63 -90 -169 -125 -235 -34 -66 -86 -160 -115
-210 -29 -49 -96 -175 -150 -280 -53 -104 -128 -242 -165 -305 -117 -198 -241
-411 -308 -530 -36 -63 -98 -172 -138 -241 -71 -124 -207 -374 -387 -714 -49
-93 -122 -226 -162 -295 -40 -69 -124 -222 -187 -340 -63 -118 -149 -269 -190
-335 -105 -169 -130 -212 -248 -444 -79 -155 -110 -207 -125 -209 -11 -1 -65
16 -120 39 -148 61 -328 124 -456 159 -143 40 -230 65 -249 73 -8 3 -46 14
-85 23 -38 9 -74 20 -80 24 -5 4 -26 10 -45 13 -19 3 -66 12 -105 20 -143 29
-263 46 -362 52 -57 3 -156 13 -220 21 -126 16 -380 17 -543 2 -52 -4 -117
-10 -145 -12 -27 -2 -63 -9 -78 -15 -16 -6 -37 -11 -48 -11 -10 0 -42 -11 -71
-25 -29 -14 -79 -28 -112 -31 -34 -3 -69 -10 -79 -16 -24 -12 -122 -38 -147
-38 -11 0 -54 -12 -97 -26 -43 -14 -105 -30 -138 -34 -83 -11 -163 -33 -210
-58 -22 -12 -85 -34 -140 -51 -179 -53 -412 -141 -490 -184 -87 -48 -145 -83
-184 -111 -25 -18 -66 -43 -91 -54 -55 -26 -151 -87 -216 -136 -52 -40 -71
-42 -66 -6 4 23 3 22 -20 -6 -12 -16 -28 -38 -34 -48 -6 -11 -18 -23 -27 -28
-76 -37 -111 -67 -128 -110 -14 -37 -21 -43 -48 -46 -18 -2 -34 -9 -37 -17
-10 -24 -82 -68 -104 -62 -11 3 -18 1 -14 -4 3 -5 0 -9 -5 -9 -6 0 -11 -8 -11
-19 0 -10 -9 -30 -21 -45 -16 -20 -24 -24 -34 -16 -19 16 -77 -47 -116 -125
-44 -88 -130 -191 -156 -187 -14 2 -28 -8 -44 -30 -12 -18 -49 -61 -81 -96
-32 -34 -65 -74 -74 -87 -9 -13 -31 -29 -49 -35 -20 -7 -35 -19 -39 -33 -11
-43 -174 -326 -207 -359 -44 -44 -102 -162 -179 -363 -34 -88 -94 -230 -135
-315 -64 -137 -104 -245 -240 -645 -47 -140 -101 -429 -114 -610 -6 -82 -12
-440 -13 -795 -3 -728 -5 -701 75 -915 46 -124 137 -355 209 -530 62 -151 231
-480 297 -581 33 -49 86 -119 118 -155 33 -36 95 -117 140 -180 104 -147 327
-382 355 -373 14 4 18 2 16 -10 -5 -22 126 -176 260 -307 196 -191 488 -449
508 -449 16 0 64 -24 64 -32 0 -5 5 -8 11 -8 7 0 37 -17 68 -37 31 -21 72 -46
91 -55 19 -10 53 -29 75 -42 22 -14 46 -25 53 -26 7 0 28 -11 45 -24 117 -89
299 -163 562 -229 218 -55 323 -83 356 -95 13 -5 27 -10 32 -11 28 -3 127 -36
153 -51 96 -55 293 -95 544 -110 102 -7 232 -15 290 -19 296 -22 574 -8 985
50 167 23 248 42 284 66 56 38 189 87 306 113 22 5 63 14 90 20 28 6 77 19
110 29 33 10 98 28 145 41 202 52 362 124 587 264 45 28 105 65 133 81 28 17
67 42 85 56 19 15 84 57 145 95 154 95 260 190 609 542 386 390 482 508 621
762 35 63 98 174 140 245 102 170 141 250 183 371 19 54 62 171 95 259 32 88
73 214 91 280 40 155 106 501 131 685 10 80 27 192 36 250 23 142 23 529 0
685 -65 454 -125 772 -181 970 -57 197 -189 574 -232 660 -25 49 -94 171 -153
270 -128 216 -147 250 -218 385 -50 95 -68 119 -201 255 -80 83 -178 190 -216
240 -43 54 -119 132 -195 198 -69 59 -163 143 -208 184 -95 86 -199 166 -254
194 -21 11 -38 26 -38 35 0 9 27 48 59 87 32 40 98 131 147 202 48 72 111 162
138 202 28 39 87 124 131 189 112 165 219 310 493 666 53 69 133 178 177 243
44 64 125 178 179 253 102 141 257 357 438 612 57 80 140 192 186 249 46 57
106 138 134 180 77 116 204 278 280 357 50 53 78 93 104 150 20 44 40 86 45
94 5 8 18 33 30 54 42 78 105 163 181 244 42 47 109 136 149 200 75 120 136
195 151 186 13 -9 54 -76 63 -104 4 -14 15 -34 24 -45 35 -42 88 -178 171
-445 28 -91 65 -188 81 -217 62 -111 188 -282 279 -378 53 -55 128 -139 168
-186 108 -130 152 -160 407 -280 72 -34 164 -81 205 -104 90 -51 240 -108 353
-135 131 -30 622 -96 857 -115 66 -5 107 -9 210 -21 72 -9 372 -3 570 11 336
23 578 44 645 54 33 6 110 15 170 20 216 21 537 66 725 101 154 29 328 65 430
89 266 62 596 128 850 170 381 63 677 110 735 116 33 4 78 11 100 15 22 5 132
23 245 40 113 16 252 39 310 50 58 10 177 28 265 40 246 32 356 50 401 65 22
7 92 18 156 24 64 6 140 16 169 21 113 22 377 43 689 55 74 3 156 8 182 11 26
3 78 1 115 -5 69 -10 172 -16 438 -26 83 -4 202 -11 265 -17 63 -5 130 -11
147 -13 28 -2 70 -10 118 -20 6 -2 30 -8 55 -15 25 -7 56 -14 70 -15 14 -2 66
-12 115 -23 50 -11 137 -27 195 -36 58 -9 206 -32 330 -51 124 -19 279 -44
345 -55 124 -21 245 -41 375 -60 104 -16 186 -42 277 -89 43 -22 114 -52 158
-66 78 -25 81 -25 123 -9 52 19 112 91 152 180 23 51 36 66 81 94 30 18 80 59
112 92 77 79 158 247 222 458 58 195 129 407 193 576 27 73 63 185 81 250 36
133 73 219 102 235 11 5 57 19 102 30 45 11 98 24 117 29 19 5 87 18 150 29
63 11 165 29 225 41 191 37 211 39 640 91 231 28 484 53 562 56 l142 6 10 -26
c30 -79 71 -578 71 -867 0 -96 -7 -328 -15 -515 -19 -438 -20 -398 7 -389 25
8 219 102 293 142 l50 27 5 205 5 205 130 70 c72 39 180 100 240 136 61 37
200 115 310 174 110 59 214 117 231 131 45 34 72 96 94 221 85 466 106 573
137 683 50 180 102 262 219 346 39 28 80 69 103 103 45 66 56 76 139 126 79
48 92 72 126 240 15 72 47 213 72 315 93 382 106 452 106 540 0 94 -18 152
-53 171 -19 9 -247 19 -457 19 -52 0 -67 4 -86 23 l-23 23 -1 965 c0 954 -2
1032 -38 1544 -13 184 -21 242 -50 352 -41 160 -49 178 -88 203 -47 28 -73 60
-109 131 l-32 64 -60 -3 c-220 -10 -339 -9 -364 4 -14 8 -31 14 -36 14 -6 0
-21 14 -35 32 -14 18 -39 47 -56 65 l-32 33 -198 -1 c-110 -1 -244 -7 -299
-14z m-750 -1936 c4 -23 21 -87 37 -143 80 -269 128 -505 177 -871 69 -523 96
-774 84 -793 -17 -28 -69 -53 -125 -62 -50 -7 -132 -24 -348 -70 -52 -11 -138
-29 -190 -40 -52 -11 -126 -26 -165 -35 -38 -8 -88 -15 -110 -15 -22 0 -58 -5
-80 -10 -21 -5 -73 -10 -115 -11 l-75 -2 2 38 c2 21 25 97 52 169 27 72 72
199 99 281 28 83 73 202 102 265 28 63 69 162 92 220 90 234 151 386 190 468
22 48 58 127 79 175 74 168 107 233 131 262 38 46 138 195 138 206 0 5 4 9 9
9 5 0 12 -19 16 -41z m-14575 -2289 c27 -35 32 -47 27 -77 -15 -92 -164 -348
-402 -692 -60 -88 -139 -206 -175 -263 -36 -56 -119 -185 -185 -285 -126 -191
-154 -237 -290 -473 -46 -80 -95 -159 -109 -177 -15 -17 -72 -98 -126 -180
-55 -81 -107 -159 -117 -173 -60 -89 -94 -143 -117 -186 -15 -27 -49 -76 -76
-109 -52 -62 -145 -197 -173 -250 -8 -17 -35 -60 -59 -97 -23 -37 -65 -102
-91 -145 -106 -171 -175 -276 -231 -355 -33 -46 -77 -116 -97 -156 -39 -75
-64 -118 -165 -285 -65 -108 -104 -168 -179 -277 -27 -40 -59 -89 -70 -109
-37 -65 -192 -294 -262 -387 -17 -23 -68 -102 -114 -176 -45 -73 -103 -167
-128 -208 -26 -41 -87 -146 -136 -233 -57 -100 -109 -177 -141 -210 -28 -29
-87 -111 -132 -183 -105 -170 -113 -178 -141 -169 -48 15 -54 103 -13 185 48
95 239 427 319 554 42 66 104 166 138 221 34 55 85 136 113 180 28 44 65 105
83 135 17 30 70 117 118 193 47 76 118 188 156 250 39 62 87 138 107 168 206
298 325 484 410 645 41 77 91 163 109 191 55 82 211 320 282 428 63 96 187
336 237 458 27 66 56 79 47 21 -5 -30 -4 -34 8 -24 8 7 15 16 15 20 0 18 203
356 235 390 12 14 42 59 66 100 23 41 75 120 115 175 39 55 93 141 119 190 26
50 69 131 95 180 57 109 100 180 211 347 87 131 226 346 244 377 137 236 253
394 343 467 68 55 91 56 132 4z m8957 -2886 c-3 -3 -12 -4 -19 -1 -8 3 -5 6 6
6 11 1 17 -2 13 -5z m-14890 -3479 c54 -9 133 -20 177 -26 146 -19 322 -65
611 -161 263 -87 286 -105 271 -199 -14 -88 -182 -433 -271 -559 -18 -25 -54
-83 -80 -130 -27 -47 -61 -103 -76 -126 -16 -23 -61 -106 -102 -185 -69 -135
-113 -207 -206 -339 -56 -79 -104 -180 -141 -298 -18 -57 -39 -110 -47 -117
-15 -15 -67 -13 -158 5 -234 48 -504 62 -665 35 -58 -9 -141 -31 -185 -47 -44
-17 -105 -39 -135 -51 -70 -26 -291 -134 -350 -172 -70 -44 -162 -144 -217
-236 -204 -339 -304 -686 -283 -979 16 -209 65 -401 146 -562 113 -227 187
-326 339 -453 33 -27 71 -60 85 -73 26 -24 198 -140 238 -161 129 -67 492
-116 734 -99 121 8 278 34 323 53 17 7 51 20 77 30 99 35 309 186 457 329 264
255 314 327 385 552 53 170 61 234 61 474 0 238 -9 295 -70 486 -51 156 -121
266 -273 429 -36 39 -96 108 -133 155 -67 85 -111 126 -182 169 -42 26 -42 40
2 33 26 -4 34 2 79 64 28 38 79 122 114 187 35 65 92 155 127 199 53 68 171
245 259 388 37 60 139 266 152 306 13 37 36 74 124 194 22 31 81 133 130 228
49 94 96 174 104 177 23 9 90 -29 172 -96 41 -34 93 -73 115 -87 43 -27 150
-114 285 -231 47 -40 115 -96 152 -123 47 -35 92 -83 147 -157 44 -58 99 -129
123 -158 126 -151 164 -204 271 -383 135 -228 177 -314 285 -585 118 -296 159
-452 192 -725 6 -52 18 -133 27 -180 10 -56 17 -180 20 -365 5 -291 -4 -476
-31 -580 -8 -33 -22 -103 -32 -155 -28 -160 -212 -693 -309 -895 -94 -196
-289 -503 -347 -547 -19 -15 -54 -57 -78 -95 -23 -37 -62 -97 -86 -133 -23
-36 -46 -74 -50 -85 -19 -50 -78 -116 -120 -134 -24 -11 -74 -44 -111 -74 -37
-30 -87 -66 -110 -81 -23 -14 -64 -52 -90 -85 -38 -47 -64 -67 -123 -96 -41
-21 -131 -75 -200 -120 -69 -46 -174 -109 -235 -142 -125 -67 -124 -67 -225
-126 -80 -47 -175 -85 -299 -118 -94 -26 -287 -72 -361 -87 -30 -6 -93 -21
-140 -32 -184 -44 -351 -61 -600 -61 -286 1 -501 20 -670 62 -69 16 -156 36
-195 43 -38 8 -81 18 -95 24 -14 6 -74 23 -135 38 -60 14 -114 29 -120 33 -13
9 -114 48 -145 56 -28 7 -72 27 -80 36 -3 3 -40 22 -82 43 -43 20 -78 41 -78
47 0 5 -17 17 -37 25 -103 42 -378 194 -491 271 -35 24 -67 43 -71 43 -13 0
-85 71 -110 107 -15 22 -33 34 -57 39 -27 5 -61 32 -150 118 -63 62 -114 116
-114 122 0 16 -24 64 -32 64 -5 0 -8 5 -8 11 0 18 -73 85 -100 92 -45 11 -280
308 -313 397 -6 17 -15 30 -18 30 -4 0 -13 17 -19 38 -7 20 -19 45 -27 54 -8
9 -17 35 -20 57 -3 23 -11 41 -18 41 -8 0 -12 13 -11 37 0 21 -4 38 -11 40 -8
3 -13 -4 -13 -16 0 -12 -4 -21 -10 -21 -12 0 -32 38 -26 49 3 5 0 14 -7 20 -8
6 -26 43 -42 83 -31 83 -62 146 -81 169 -8 8 -14 22 -14 29 0 7 -7 21 -15 30
-18 20 -72 182 -116 350 -53 202 -67 313 -90 712 -27 466 24 1027 117 1284 14
38 34 95 44 128 24 71 107 261 130 296 9 14 31 54 49 90 19 36 39 72 46 80 7
8 36 62 65 120 81 162 174 316 215 357 10 10 31 38 47 63 16 24 62 81 103 125
41 44 111 123 156 175 105 123 246 260 267 260 6 0 41 26 79 58 37 32 78 65
91 74 12 8 39 31 60 49 38 35 91 75 127 95 109 63 301 162 370 191 33 14 101
44 150 68 50 23 108 48 130 56 22 7 59 24 83 37 24 13 71 34 106 47 34 13 82
32 107 43 24 11 82 31 129 43 47 12 90 25 95 29 6 4 42 13 80 20 39 6 90 16
115 22 196 44 795 64 997 33z m-238 -2655 c116 -29 228 -89 315 -169 75 -69
260 -331 323 -458 31 -64 36 -84 41 -167 6 -123 -9 -198 -63 -313 -55 -116
-177 -301 -247 -373 -97 -100 -270 -201 -387 -226 -39 -8 -124 -14 -206 -14
-150 0 -241 17 -320 58 -174 90 -395 321 -460 479 -59 147 -77 422 -36 576 40
152 211 387 354 488 110 77 212 113 402 143 57 9 200 -4 284 -24z m-3279
-2701 c0 -6 -4 -7 -10 -4 -5 3 -10 11 -10 16 0 6 5 7 10 4 6 -3 10 -11 10 -16z"/>
<path d="M21570 18060 c-133 -16 -236 -68 -357 -177 -107 -96 -205 -247 -223
-344 -28 -142 1 -357 66 -489 31 -61 59 -97 158 -197 159 -159 189 -173 396
-174 200 -1 321 31 446 117 129 88 230 201 263 294 44 123 65 350 41 451 -42
177 -215 375 -418 478 -73 37 -249 56 -372 41z m265 -136 c84 -33 151 -73 225
-132 69 -54 103 -98 145 -185 56 -116 58 -312 4 -486 -36 -118 -77 -163 -217
-240 -101 -56 -245 -101 -323 -101 -63 0 -193 36 -264 73 -92 48 -180 144
-243 265 -64 125 -86 211 -78 307 3 39 11 85 17 104 34 97 208 302 296 348 50
26 140 60 208 77 49 12 162 -2 230 -30z"/>
<path d="M46584 31385 c-2 -5 -1 -289 3 -629 7 -535 10 -620 23 -626 71 -35
152 -70 185 -80 22 -7 48 -19 57 -27 9 -8 35 -17 57 -20 23 -3 44 -10 47 -14
3 -5 -2 -28 -10 -52 -8 -24 -26 -99 -40 -168 -15 -68 -33 -144 -41 -169 -8
-25 -31 -112 -50 -195 -58 -247 -92 -370 -149 -534 -30 -86 -66 -199 -80 -251
-13 -52 -39 -149 -56 -215 -17 -66 -76 -254 -131 -418 -54 -165 -111 -340
-125 -390 -14 -51 -34 -117 -44 -147 -10 -30 -37 -116 -60 -190 -73 -235 -96
-287 -141 -316 -45 -28 -45 -28 -93 -181 -70 -220 -129 -527 -110 -576 3 -9
40 -30 82 -47 43 -18 80 -35 84 -39 4 -3 9 -141 12 -306 2 -165 9 -349 15
-410 6 -60 15 -247 20 -415 13 -386 20 -480 35 -480 6 0 60 18 121 40 60 23
148 54 195 71 116 41 127 47 180 100 30 30 56 70 73 110 32 80 82 250 102 349
8 41 24 109 34 150 11 41 27 116 36 165 20 113 82 381 97 417 19 50 51 53 513
53 623 0 1081 -19 1475 -61 469 -50 491 -52 535 -65 22 -6 65 -14 95 -18 66
-9 92 -20 87 -35 -2 -6 -17 -13 -33 -16 -36 -7 -23 -16 36 -25 55 -8 119 -36
142 -62 29 -32 50 -93 43 -124 -9 -39 -106 -133 -164 -159 -25 -12 -68 -32
-96 -45 -82 -40 -224 -91 -280 -100 -147 -25 -351 -70 -477 -105 -148 -41
-271 -59 -423 -62 -164 -4 -185 4 -219 77 -13 30 -30 79 -36 109 -12 60 -23
74 -44 57 -15 -13 -96 -11 -96 2 0 11 -34 9 -46 -3 -6 -6 -81 -46 -168 -90
-306 -154 -484 -299 -619 -503 -40 -62 -103 -157 -140 -213 -90 -137 -117
-197 -117 -262 0 -64 11 -87 52 -108 86 -44 156 -55 388 -61 257 -6 711 9 940
31 85 9 205 20 265 26 201 20 491 66 600 95 47 13 48 14 15 14 -19 0 -65 -3
-102 -8 -38 -4 -68 -4 -68 1 0 10 8 11 215 48 94 16 204 37 245 46 111 25 434
122 497 150 30 13 76 30 102 38 321 99 683 269 896 420 11 7 73 48 137 90 183
118 337 279 376 395 16 44 14 168 -2 256 -19 98 -82 310 -110 370 -13 28 -26
61 -31 75 -18 62 -107 230 -129 242 -32 18 -117 74 -141 93 -49 38 -62 44 -86
45 -14 0 -36 11 -50 26 -18 19 -30 24 -51 20 -19 -4 -28 -1 -28 7 0 31 -26 66
-53 71 -16 3 -48 22 -72 42 -24 20 -48 33 -53 30 -14 -8 -103 24 -109 40 -2 7
-28 21 -56 30 -29 9 -57 21 -64 26 -7 5 -21 7 -32 3 -24 -7 -51 6 -85 40 -14
14 -34 25 -45 25 -11 0 -28 11 -37 25 -9 14 -26 25 -39 25 -57 0 -57 68 0 96
35 16 103 79 142 130 19 26 24 28 42 16 18 -10 27 -9 59 7 21 11 44 27 51 35
8 9 20 16 27 16 8 0 35 19 60 42 37 34 47 39 55 27 5 -8 9 -18 9 -23 0 -5 38
30 85 78 56 57 92 86 107 86 12 0 35 12 50 27 17 16 42 28 58 29 18 1 45 15
66 34 20 17 47 36 60 42 13 6 28 25 34 43 15 44 73 99 97 91 19 -6 21 -4 109
115 22 28 68 205 98 369 66 365 100 534 116 586 30 98 46 281 33 372 -12 83
-50 171 -102 236 -17 21 -31 45 -31 52 0 8 -14 26 -31 41 -17 16 -42 44 -55
64 -12 20 -47 63 -76 95 -29 33 -66 78 -81 101 -16 22 -63 76 -106 120 -106
106 -108 108 -125 94 -11 -10 -17 -7 -30 11 -9 12 -16 27 -16 33 -1 18 -35 52
-106 105 -38 28 -82 67 -97 86 -16 19 -38 34 -50 34 -12 0 -30 9 -42 20 -83
82 -137 125 -240 190 -65 41 -146 100 -179 131 -57 52 -188 129 -219 129 -8 0
-22 9 -32 20 -10 11 -29 20 -43 20 -14 0 -41 15 -62 34 -43 39 -199 126 -225
126 -10 0 -32 9 -49 19 -17 11 -70 34 -116 51 -46 17 -136 55 -200 85 -235
110 -639 245 -865 289 -128 25 -401 55 -613 66 -266 14 -1143 18 -1148 5z
m1801 -1404 c39 -6 99 -15 135 -20 36 -5 94 -16 130 -25 36 -9 86 -20 112 -26
27 -5 61 -16 77 -25 17 -8 49 -15 71 -15 23 0 49 -4 58 -9 9 -5 33 -11 52 -14
19 -3 75 -19 124 -36 49 -17 98 -29 110 -26 12 3 44 -7 73 -23 118 -62 202
-102 303 -142 30 -13 78 -33 105 -45 28 -13 68 -29 90 -36 49 -15 113 -46 140
-69 32 -27 91 -60 108 -60 8 0 26 -12 39 -27 13 -16 33 -34 44 -40 103 -65
124 -83 140 -113 11 -19 32 -41 47 -48 38 -18 55 -56 36 -79 -9 -10 -20 -30
-26 -44 -9 -21 -20 -27 -53 -32 -26 -3 -53 -15 -69 -31 -15 -14 -32 -26 -37
-26 -6 0 -19 -9 -29 -20 -9 -10 -34 -24 -54 -31 -20 -6 -43 -17 -51 -24 -8 -7
-24 -15 -35 -18 -51 -15 -93 -34 -109 -49 -9 -10 -46 -27 -82 -38 -36 -11 -78
-29 -92 -41 -48 -37 -117 -79 -129 -79 -7 0 -13 7 -13 15 0 31 -31 13 -51 -29
-20 -44 -39 -57 -103 -72 -16 -4 -48 -26 -71 -49 -40 -39 -65 -51 -155 -69
-14 -3 -51 -30 -83 -59 -40 -39 -71 -58 -104 -67 -27 -7 -57 -21 -68 -30 -39
-32 -98 -61 -149 -71 -43 -9 -60 -20 -106 -68 -57 -59 -147 -111 -192 -111
-13 0 -35 -11 -48 -25 -13 -14 -34 -25 -46 -25 -13 0 -26 -5 -29 -10 -10 -16
-66 -42 -96 -44 -17 -1 -46 -19 -77 -48 -34 -32 -62 -49 -88 -54 -22 -4 -55
-20 -75 -36 -20 -16 -57 -35 -83 -43 -25 -8 -61 -25 -79 -38 -17 -14 -78 -48
-135 -77 -56 -28 -122 -68 -146 -88 -47 -39 -121 -78 -296 -158 -58 -27 -118
-58 -135 -70 -83 -59 -92 -41 -71 133 9 76 25 176 35 223 40 181 282 1125 335
1305 31 105 88 312 126 460 82 323 98 369 156 439 41 51 85 77 149 89 42 7
403 -2 470 -12z"/>
<path d="M55758 31143 c-19 -38 -43 -91 -52 -120 -9 -28 -25 -54 -34 -58 -39
-15 -197 -17 -512 -6 -421 15 -1706 16 -2025 2 -288 -13 -410 -24 -615 -57
-162 -25 -218 -41 -260 -73 -23 -18 -23 -21 -8 -38 9 -10 32 -58 52 -106 48
-117 126 -272 179 -355 61 -95 126 -218 187 -352 55 -120 86 -171 143 -232 47
-50 36 -47 579 -153 124 -25 293 -61 375 -80 336 -80 403 -96 513 -121 63 -14
180 -37 260 -51 138 -24 351 -83 378 -105 17 -14 15 -28 -8 -66 -21 -34 -21
-34 -47 -16 -26 17 -27 16 -47 -10 -53 -70 -100 -116 -117 -116 -13 0 -20 -10
-25 -35 -3 -20 -23 -54 -44 -77 -31 -35 -41 -41 -51 -30 -22 21 -48 13 -93
-28 -24 -22 -48 -40 -54 -40 -6 0 -38 -22 -71 -50 -59 -49 -81 -60 -81 -40 0
14 -36 12 -47 -2 -6 -7 -13 -25 -17 -40 -3 -16 -10 -28 -14 -28 -5 0 -31 -20
-58 -46 -39 -36 -54 -44 -76 -40 -17 3 -31 0 -39 -10 -18 -22 -112 -81 -134
-86 -11 -1 -30 -23 -44 -47 -14 -24 -36 -50 -48 -59 -22 -14 -23 -14 -17 17 5
24 3 31 -9 31 -8 0 -19 -11 -24 -24 -8 -24 -85 -109 -139 -155 l-29 -24 -3 21
c-2 12 -8 22 -14 22 -6 0 -8 -11 -4 -27 10 -38 9 -64 -2 -75 -6 -6 -8 0 -5 15
11 58 -58 35 -86 -29 -15 -33 -35 -52 -90 -88 -39 -26 -71 -52 -71 -59 0 -7
-10 -33 -22 -59 -28 -59 -52 -65 -42 -12 6 32 4 36 -12 32 -11 -2 -24 -17 -30
-37 -7 -21 -28 -46 -57 -67 -25 -18 -64 -57 -85 -86 -52 -71 -68 -83 -108 -79
-31 2 -35 -1 -63 -51 -17 -29 -52 -78 -79 -108 -27 -30 -55 -70 -63 -87 -12
-29 -17 -32 -45 -27 -28 5 -32 2 -48 -34 -10 -22 -28 -45 -39 -51 -12 -7 -38
-35 -58 -64 -23 -34 -41 -51 -53 -49 -19 3 -42 -20 -91 -94 -19 -28 -47 -62
-62 -75 -16 -13 -42 -44 -58 -69 -20 -29 -41 -48 -61 -54 -21 -6 -38 -22 -53
-50 -12 -23 -49 -75 -81 -116 -33 -41 -74 -104 -91 -140 -34 -72 -83 -130
-110 -130 -10 0 -27 -17 -40 -37 -12 -21 -41 -62 -63 -92 l-41 -54 0 -201 c1
-193 2 -205 29 -291 33 -102 87 -224 138 -312 20 -33 55 -102 78 -154 23 -52
69 -140 101 -196 57 -99 76 -129 194 -293 30 -41 74 -105 99 -142 25 -36 73
-90 108 -120 34 -29 96 -85 138 -124 90 -85 159 -132 305 -209 61 -32 124 -67
140 -80 123 -89 535 -225 815 -269 425 -66 1192 -75 1665 -21 161 19 442 72
685 130 102 24 284 67 405 95 121 28 330 85 465 126 135 41 299 91 365 110
187 56 199 60 244 88 54 35 64 62 59 171 -7 145 -37 192 -198 314 -144 109
-276 181 -333 181 -24 0 -127 -33 -352 -113 -121 -43 -279 -81 -436 -106 -216
-35 -1211 -57 -1377 -31 -103 17 -270 60 -311 80 -20 10 -110 55 -201 100 -91
44 -185 96 -208 115 -24 19 -48 33 -53 29 -29 -17 -58 12 -174 175 -34 48 -55
68 -65 64 -59 -23 -81 -8 -125 84 -34 72 -121 163 -156 163 -15 0 -37 12 -55
31 -28 29 -29 33 -26 111 2 45 8 90 13 100 10 18 12 18 34 4 14 -9 27 -16 29
-16 8 0 89 111 116 159 18 32 34 47 56 53 21 5 35 18 47 43 17 36 43 46 53 20
9 -23 31 -18 38 9 3 13 18 37 33 54 16 16 35 42 43 58 17 32 103 86 124 78 9
-3 34 15 64 46 32 33 54 49 64 45 11 -4 27 7 49 35 24 30 39 40 57 38 18 -2
51 24 148 117 70 66 138 140 153 165 l26 45 3 -47 c4 -63 30 -61 45 3 4 16 28
43 62 68 30 23 63 53 72 68 26 40 72 64 94 50 16 -10 21 -8 34 10 8 11 25 23
38 27 19 4 26 16 33 48 7 34 16 46 42 58 17 9 39 25 47 38 24 34 51 45 74 30
18 -11 24 -9 50 16 16 15 32 38 35 51 3 13 13 22 23 21 11 -1 19 9 24 32 7 33
33 61 57 62 17 0 15 -16 -4 -46 -9 -13 -14 -27 -11 -31 10 -9 37 17 37 36 0
20 65 83 102 99 15 6 35 23 44 37 9 14 30 33 45 41 16 8 29 22 29 32 1 21 23
52 39 52 8 0 6 -10 -4 -31 -9 -17 -15 -33 -13 -35 10 -10 49 31 56 59 5 21 18
37 37 47 48 25 128 82 157 112 14 15 33 28 42 28 8 0 20 9 26 20 7 12 19 19
34 18 28 -3 113 58 122 87 10 33 35 55 61 55 14 0 31 7 39 15 9 8 24 15 34 15
10 0 22 5 25 10 3 6 12 10 20 10 7 0 27 12 43 28 16 15 41 35 55 45 15 10 24
23 21 31 -3 8 -1 17 5 21 6 3 11 -1 11 -9 0 -44 42 -24 65 31 10 25 22 35 45
39 17 4 36 14 43 24 7 10 33 32 60 49 26 18 47 37 47 43 0 6 11 8 25 6 20 -4
32 2 55 29 17 18 30 38 30 44 0 6 32 42 71 80 51 50 75 67 83 60 14 -12 56 12
56 32 0 7 16 32 35 56 19 24 35 50 35 57 0 8 19 23 43 35 23 12 59 37 80 55
37 34 46 38 80 34 10 -1 27 6 38 15 13 12 27 15 46 11 39 -9 44 -9 74 -1 21 5
32 1 52 -20 24 -27 25 -27 83 -15 86 18 104 29 104 61 0 27 15 39 51 39 16 0
18 5 13 43 -6 44 10 76 39 77 20 1 66 84 77 136 10 51 17 76 95 339 129 436
155 550 155 690 0 105 -12 151 -43 161 -45 14 -191 88 -208 105 -25 25 -99 67
-134 75 -16 4 -48 16 -69 26 -53 27 -267 89 -341 98 -33 5 -77 14 -99 20 -48
14 -48 14 -176 40 -131 26 -252 59 -265 72 -10 10 25 8 147 -7 l43 -5 -52 19
c-28 11 -77 24 -110 31 -171 34 -214 46 -283 80 -41 21 -96 48 -122 59 -36 16
-49 27 -53 48 -18 84 -20 88 -65 110 -53 25 -197 48 -443 68 -279 23 -257 27
-299 -52z m2218 -649 c31 -14 54 -28 51 -31 -8 -7 -127 38 -127 48 0 14 16 11
76 -17z"/>
<path d="M41363 30015 c-3 -9 -2 -19 1 -23 8 -8 38 10 44 26 6 18 -38 14 -45
-3z"/>
<path d="M25100 29590 c-435 -16 -656 -47 -1050 -146 -368 -93 -423 -132 -553
-389 -72 -143 -91 -219 -92 -361 l0 -121 45 -89 c41 -82 234 -368 283 -422 11
-12 44 -35 72 -51 78 -44 386 -374 546 -586 25 -33 70 -103 100 -155 30 -52
82 -140 116 -195 34 -55 83 -136 109 -180 26 -44 70 -120 99 -170 81 -137 108
-170 175 -209 76 -45 157 -58 273 -46 166 17 484 170 767 368 165 116 293 212
360 271 41 37 101 88 132 114 97 81 359 389 490 575 56 80 100 186 139 337 16
60 47 175 69 255 81 291 103 405 104 530 1 106 -1 119 -27 172 -30 62 -124
157 -199 201 -107 63 -805 245 -1083 282 -139 19 -565 26 -875 15z"/>
<path d="M38729 23335 c-2 -2 -78 -6 -169 -10 -204 -8 -338 -21 -389 -38 -27
-10 -79 -13 -182 -10 -79 2 -173 -1 -209 -6 -36 -6 -110 -18 -165 -26 -163
-23 -178 -26 -215 -36 -19 -5 -102 -16 -185 -25 -82 -8 -220 -26 -305 -39 -85
-13 -184 -26 -220 -30 -36 -3 -123 -12 -195 -20 -71 -8 -166 -17 -210 -21 -99
-9 -104 -10 -135 -17 -14 -4 -38 -9 -55 -12 -16 -3 -66 -13 -110 -21 -44 -9
-94 -17 -112 -18 -18 -1 -46 -12 -62 -24 -32 -24 -129 -58 -261 -92 -47 -12
-96 -27 -110 -32 -29 -12 -221 -75 -265 -87 -65 -19 -207 -62 -360 -110 -88
-27 -207 -63 -265 -80 -58 -16 -161 -46 -230 -66 -69 -20 -170 -49 -225 -65
-55 -15 -118 -36 -140 -45 -150 -64 -207 -90 -412 -194 -68 -33 -126 -61 -130
-61 -15 0 -200 -96 -233 -120 -19 -15 -75 -49 -125 -75 -49 -27 -130 -72 -180
-100 -49 -28 -168 -91 -262 -139 -148 -75 -179 -95 -214 -137 -23 -28 -62 -64
-88 -81 -25 -18 -52 -38 -59 -45 -8 -7 -33 -22 -56 -33 -24 -10 -73 -48 -109
-84 -36 -35 -78 -73 -94 -83 -55 -35 -116 -84 -201 -162 -126 -116 -281 -238
-329 -261 -30 -14 -58 -42 -99 -96 -31 -43 -75 -96 -98 -118 -23 -23 -49 -54
-59 -69 -10 -15 -29 -32 -43 -37 -13 -5 -24 -16 -24 -23 0 -8 -16 -25 -35 -38
-19 -13 -38 -32 -41 -41 -3 -10 -19 -27 -35 -39 -16 -11 -40 -42 -53 -67 -30
-59 -60 -91 -97 -104 -16 -5 -29 -13 -29 -17 0 -4 -8 -16 -18 -27 -44 -47 -82
-110 -96 -158 -10 -34 -29 -65 -53 -90 -38 -38 -91 -71 -100 -63 -2 3 5 23 17
46 11 23 16 41 11 41 -5 0 -14 -13 -21 -29 -6 -16 -20 -37 -31 -47 -11 -9 -28
-47 -40 -83 -11 -36 -28 -80 -38 -97 l-19 -32 76 40 c43 22 87 45 99 52 13 6
23 14 23 19 0 4 5 7 10 7 6 0 70 29 143 64 72 35 220 105 327 156 107 50 229
110 270 132 41 23 100 55 130 71 30 16 60 34 65 38 47 36 332 159 580 249 77
28 179 67 226 86 48 19 91 34 97 34 6 0 37 12 69 26 32 14 78 32 103 41 25 9
77 30 115 48 105 50 257 104 338 121 40 8 101 23 137 34 36 10 115 28 175 40
61 12 152 32 202 45 51 14 110 25 130 26 51 2 217 39 224 50 4 7 91 17 179 21
8 0 22 6 30 13 9 8 23 10 35 5 12 -4 30 -2 45 5 39 21 129 43 195 50 33 3 78
8 100 10 22 2 92 9 155 15 63 6 216 22 340 35 124 14 349 29 500 36 400 16
1261 20 1910 10 503 -8 589 -12 785 -35 121 -14 261 -27 310 -30 50 -2 131 -7
180 -10 50 -3 158 -8 240 -11 89 -3 209 -15 295 -30 80 -13 201 -33 270 -45
69 -11 166 -29 215 -39 327 -69 424 -80 590 -68 33 3 114 -1 180 -9 66 -7 181
-18 255 -23 74 -6 144 -12 155 -15 11 -2 72 -7 135 -10 216 -13 265 -16 280
-21 8 -2 32 -6 52 -9 21 -3 57 -10 80 -15 24 -5 72 -12 108 -16 36 -4 67 -8
70 -10 3 -2 30 -6 60 -9 30 -4 67 -8 81 -10 14 -2 32 -7 40 -12 8 -4 21 -10
29 -11 63 -12 77 -14 93 -14 10 0 21 -7 24 -15 3 -8 14 -14 25 -14 10 0 32 -7
48 -15 24 -12 67 -24 143 -39 7 -2 30 -8 52 -14 40 -11 243 -35 448 -52 59 -6
121 -17 137 -25 16 -8 36 -15 44 -15 9 0 41 -12 73 -26 32 -14 67 -27 78 -29
11 -2 40 -9 64 -15 53 -13 88 -19 161 -25 30 -3 69 -8 85 -11 61 -12 95 -15
295 -29 201 -15 246 -19 540 -51 159 -17 188 -21 270 -34 30 -5 78 -12 105
-15 96 -11 130 -17 181 -31 28 -8 68 -17 90 -19 21 -3 55 -8 74 -11 19 -4 44
-8 55 -9 11 -2 34 -6 50 -9 17 -3 58 -7 92 -10 77 -7 128 -15 173 -26 19 -5
55 -11 80 -14 25 -3 62 -10 83 -15 20 -5 37 -7 37 -5 0 3 8 0 18 -5 10 -5 56
-12 102 -16 47 -3 112 -12 145 -20 33 -7 94 -17 135 -20 41 -4 84 -9 95 -12
11 -2 56 -6 100 -9 87 -5 113 -8 225 -23 119 -17 230 -37 260 -49 8 -3 22 -7
30 -8 8 -1 38 -7 66 -13 50 -10 164 -22 234 -25 19 -1 40 -5 46 -8 10 -7 125
-14 344 -23 63 -2 167 -7 230 -9 63 -3 239 -8 390 -11 151 -3 291 -9 310 -13
58 -12 1723 -6 2010 6 313 14 721 40 770 48 19 3 48 8 64 10 15 2 35 5 45 8 9
3 72 8 141 11 137 7 365 37 469 62 60 14 104 21 256 39 28 3 102 18 165 34
161 40 845 176 1003 200 214 32 744 142 922 191 186 52 468 138 515 159 91 39
308 119 420 153 353 110 430 137 604 212 105 45 232 99 281 120 129 54 480
207 620 271 68 31 139 72 162 92 45 41 176 116 318 182 98 46 178 92 267 151
31 22 61 39 66 39 11 0 152 94 231 153 54 41 83 60 181 122 74 46 200 149 275
223 117 116 149 151 142 158 -8 8 -85 -22 -292 -117 -216 -98 -472 -203 -645
-264 -163 -57 -355 -129 -430 -160 -96 -40 -307 -102 -610 -178 -416 -105
-502 -122 -855 -172 -99 -13 -211 -29 -250 -35 -38 -5 -92 -12 -120 -15 -319
-34 -439 -48 -605 -69 -107 -13 -226 -27 -263 -30 -37 -3 -71 -7 -75 -10 -4
-2 -39 -5 -77 -7 -39 -1 -74 -4 -80 -7 -5 -3 -28 -7 -50 -8 -22 -2 -54 -5 -70
-8 -17 -4 -50 -8 -75 -11 -25 -2 -74 -8 -110 -12 -36 -4 -364 -8 -730 -8 -814
1 -905 8 -1850 144 -323 47 -455 63 -725 91 -369 38 -825 102 -1275 180 -124
21 -333 55 -465 75 -291 44 -427 69 -520 95 l-70 19 80 -1 c139 -3 226 2 220
11 -8 15 -137 40 -260 51 -120 12 -167 17 -265 31 -36 5 -87 9 -113 9 -70 0
-423 68 -862 166 -510 114 -515 115 -950 189 -506 85 -683 117 -948 169 -122
25 -287 56 -367 71 -80 14 -188 37 -240 50 -52 13 -149 36 -215 51 -66 14
-158 35 -205 45 -47 11 -96 21 -110 24 -14 3 -35 7 -46 10 -12 3 -73 12 -135
21 -63 9 -123 17 -134 19 -50 7 -196 24 -255 30 -36 3 -72 8 -80 10 -8 2 -40
7 -70 10 -30 3 -109 14 -175 25 -66 10 -167 26 -225 35 -126 20 -184 30 -271
49 -117 26 -147 32 -224 44 -33 5 -76 10 -95 11 -19 0 -75 5 -125 11 -49 5
-121 12 -160 15 -38 3 -81 7 -95 10 -14 2 -56 7 -95 10 -38 3 -88 8 -110 10
-111 11 -158 15 -250 20 -373 20 -485 23 -1420 41 -181 3 -350 10 -375 14 -42
8 -604 13 -611 5z m-8179 -3615 c-44 -38 -52 -38 -34 0 12 22 22 30 42 30 l27
-1 -35 -29z"/>
<path d="M33622 18490 c-89 -3 -165 -10 -170 -16 -4 -5 -6 -470 -4 -1033 l2
-1024 108 6 c59 4 131 10 160 13 l52 7 0 551 c1 959 3 1070 20 1074 12 2 26
-34 62 -165 26 -92 59 -226 74 -298 35 -173 75 -305 128 -423 53 -120 78 -190
111 -311 28 -101 69 -293 80 -378 4 -29 13 -57 21 -64 17 -14 301 -4 320 12 7
5 31 89 54 187 79 332 111 447 171 622 76 220 95 287 153 534 58 244 66 270
89 274 16 3 17 -18 19 -315 1 -175 1 -542 -1 -815 l-3 -498 156 0 c136 0 157
2 163 16 5 14 -13 1715 -21 1974 l-2 65 -251 3 -252 2 -11 -42 c-6 -24 -24
-83 -40 -133 -15 -49 -49 -171 -75 -270 -69 -264 -122 -452 -145 -520 -36
-102 -117 -357 -131 -412 -14 -57 -24 -66 -34 -30 -4 12 -29 85 -55 162 -74
214 -108 326 -141 464 -79 335 -182 677 -227 755 l-18 31 -100 1 c-54 1 -172
-2 -262 -6z"/>
<path d="M44804 18474 c4 -15 9 -477 11 -1027 4 -955 5 -1001 22 -1008 32 -11
307 -18 326 -8 16 9 17 71 17 1033 0 924 -2 1024 -16 1030 -9 3 -95 6 -191 6
l-175 0 6 -26z"/>
<path d="M37430 18399 c-61 -12 -97 -28 -104 -46 -4 -8 -1 -54 4 -101 7 -50 8
-130 4 -189 -8 -118 -9 -120 -110 -144 -92 -22 -93 -23 -92 -151 1 -161 -6
-150 96 -146 l86 3 7 -35 c4 -19 11 -226 14 -460 7 -436 19 -589 49 -635 40
-61 97 -75 310 -76 160 0 242 10 258 32 5 8 7 54 5 103 -6 120 -12 126 -154
138 -60 6 -111 15 -115 21 -9 14 -11 898 -2 921 8 22 23 20 86 -9 60 -28 110
-32 131 -10 22 21 47 142 47 223 0 85 1 84 -148 75 -84 -5 -106 -3 -113 8 -5
8 -9 100 -9 204 0 105 -3 207 -6 227 -6 35 -9 37 -56 47 -57 13 -124 13 -188
0z"/>
<path d="M36311 17950 c-161 -34 -306 -109 -412 -212 -82 -80 -110 -164 -139
-429 -18 -161 -19 -185 -6 -290 8 -63 22 -145 30 -183 32 -137 135 -289 237
-352 88 -53 158 -67 334 -68 229 -1 345 25 414 95 69 70 160 233 211 379 29
82 40 304 20 414 -28 163 -114 373 -189 465 -101 125 -347 213 -500 181z m180
-350 c78 -40 117 -137 140 -345 25 -239 -16 -457 -100 -528 -98 -82 -285 -54
-358 55 -92 138 -127 431 -70 594 20 58 81 148 121 179 83 63 194 82 267 45z"/>
<path d="M38660 17950 c-131 -33 -312 -140 -400 -237 -77 -84 -119 -226 -138
-470 -11 -135 -3 -243 27 -383 25 -111 64 -186 146 -283 115 -134 169 -157
385 -164 233 -8 388 28 470 109 41 41 115 148 160 234 79 151 92 471 29 718
-58 226 -165 347 -389 439 -77 32 -109 40 -175 43 -44 2 -96 -1 -115 -6z m215
-353 c89 -59 136 -182 143 -374 6 -161 -8 -262 -54 -397 -49 -140 -59 -149
-176 -150 -151 -2 -219 38 -272 158 -44 98 -51 150 -51 356 0 177 2 199 21
240 28 61 93 121 178 165 60 31 78 36 121 33 32 -3 64 -14 90 -31z"/>
<path d="M40299 17941 c-19 -11 -57 -39 -85 -63 -107 -94 -184 -148 -212 -148
-5 0 -12 39 -14 86 -3 59 -9 89 -19 95 -17 13 -214 5 -251 -10 l-28 -11 0
-725 0 -725 24 -6 c27 -7 282 -2 289 6 3 3 8 212 12 465 6 362 10 465 21 482
14 22 219 138 332 189 62 27 64 28 57 58 -4 17 -10 96 -13 176 l-7 145 -35 2
c-19 2 -51 -6 -71 -16z"/>
<path d="M41110 17950 c-67 -11 -198 -65 -260 -106 -121 -80 -205 -191 -257
-339 l-28 -80 0 -270 c0 -315 7 -352 86 -485 108 -183 156 -219 328 -246 135
-21 420 -16 500 10 59 19 138 86 187 159 16 23 45 61 66 84 21 24 38 47 38 53
0 18 -78 96 -133 134 -29 20 -69 39 -89 42 l-35 6 -35 -73 c-42 -87 -73 -113
-166 -140 -83 -24 -210 -25 -252 -4 -53 28 -135 227 -160 388 -29 190 61 435
197 538 43 32 84 36 128 13 17 -9 44 -24 60 -32 17 -8 48 -29 70 -47 74 -59
124 -79 195 -79 98 1 200 51 200 98 0 36 -56 120 -122 184 -165 161 -333 224
-518 192z"/>
<path d="M43922 17949 c-119 -18 -221 -60 -346 -145 -137 -92 -141 -98 -185
-268 -37 -142 -56 -344 -48 -531 4 -116 8 -141 42 -240 34 -103 82 -192 122
-227 37 -33 171 -98 233 -112 96 -23 311 -21 427 4 94 20 190 61 231 100 13
12 37 52 54 88 25 54 29 74 26 119 -7 87 -71 149 -170 167 -45 8 -49 4 -97
-94 -47 -97 -98 -132 -193 -133 -72 -1 -185 26 -240 56 -32 17 -42 32 -67 98
-45 118 -55 182 -48 332 5 128 20 205 65 340 15 47 21 53 57 63 22 7 92 29
156 49 74 24 125 36 141 32 18 -5 34 -25 59 -74 38 -74 83 -113 130 -113 40 0
177 45 200 66 13 12 19 30 19 64 0 88 -77 197 -169 239 -20 9 -56 28 -81 43
-56 33 -204 88 -233 87 -12 -1 -50 -6 -85 -10z"/>
<path d="M45931 17934 c-71 -19 -138 -53 -230 -118 -106 -75 -127 -100 -160
-192 -41 -113 -53 -217 -54 -459 0 -240 14 -345 64 -473 42 -108 89 -167 167
-210 127 -69 263 -84 527 -57 196 20 245 36 304 100 50 54 93 138 84 162 -20
54 -173 193 -212 193 -12 0 -28 -24 -51 -76 -42 -95 -74 -119 -175 -128 -87
-8 -233 16 -290 47 -25 14 -47 36 -58 59 -24 50 -57 209 -57 279 l0 56 428 6
c235 4 443 11 462 15 32 7 35 11 38 48 5 63 -70 336 -121 447 -57 121 -115
185 -211 233 -154 76 -329 102 -455 68z m293 -276 c33 -14 57 -56 90 -151 31
-90 34 -153 9 -161 -10 -2 -125 -7 -256 -11 -181 -5 -241 -4 -252 5 -18 15
-21 125 -5 181 13 47 86 114 137 128 88 23 237 28 277 9z"/>
<path d="M47243 17917 c-173 -71 -289 -162 -323 -255 -27 -70 -37 -213 -21
-297 9 -50 17 -65 48 -92 60 -51 310 -188 532 -291 123 -58 161 -87 161 -125
0 -14 -9 -54 -20 -90 -27 -87 -52 -107 -135 -107 -88 0 -232 27 -285 53 -40
20 -47 29 -70 89 -32 86 -42 96 -72 75 -37 -25 -144 -130 -156 -154 -18 -33
-14 -94 7 -129 39 -64 174 -140 301 -169 135 -30 423 -14 547 31 93 34 195
248 197 414 1 63 -4 88 -32 156 -52 127 -84 153 -287 229 -111 41 -247 108
-314 153 -55 37 -151 131 -151 148 0 25 167 102 242 111 40 5 54 1 95 -24 110
-69 193 -113 214 -113 28 0 115 87 135 136 21 50 17 70 -21 113 -74 81 -275
162 -420 168 -84 3 -96 1 -172 -30z"/>
<path d="M42857 17803 c-27 -76 -79 -221 -117 -323 -38 -102 -92 -252 -121
-335 -53 -153 -66 -182 -80 -168 -16 17 -181 515 -204 618 -9 39 -27 106 -40
150 -13 44 -29 99 -35 123 l-11 42 -184 0 c-170 0 -185 -1 -185 -17 0 -24 60
-190 108 -299 44 -100 90 -227 153 -419 23 -71 58 -168 79 -215 20 -47 49
-113 64 -147 62 -145 99 -326 86 -428 -11 -89 -26 -155 -37 -165 -4 -4 -84
-24 -178 -45 -101 -21 -177 -43 -189 -53 -15 -14 -17 -26 -13 -70 7 -62 36
-114 80 -140 71 -43 241 -33 382 23 88 34 118 63 145 134 12 31 34 88 50 126
15 39 34 86 41 105 7 19 32 73 55 120 72 146 89 197 188 582 50 194 85 304
151 473 42 110 109 328 120 396 l7 36 -94 11 c-51 7 -111 15 -133 18 l-40 6
-48 -139z"/>
<path d="M34455 17429 c-16 -6 -14 -8 13 -8 33 -1 41 4 20 12 -7 2 -22 1 -33
-4z"/>
</g>
</svg>
